<mxfile host="app.diagrams.net" modified="2022-07-30T13:24:57.690Z" agent="5.0 (Windows NT 10.0; Win64; x64) AppleWebKit/537.36 (KHTML, like Gecko) Chrome/97.0.4692.71 Safari/537.36" etag="HbL5twcE2R3ba2IauHXI" version="20.1.4" type="github" pages="2">
  <diagram id="90Nq6x2tdCnxJy_07rz6" name="内存管理">
    <mxGraphModel dx="750" dy="752" grid="1" gridSize="10" guides="1" tooltips="1" connect="1" arrows="1" fold="1" page="1" pageScale="1" pageWidth="827" pageHeight="1169" math="0" shadow="0">
      <root>
        <mxCell id="0" />
        <mxCell id="1" parent="0" />
        <mxCell id="QtSbq6Br4k7f91_72cH2-1" value="用户程序&lt;br&gt;in RAM" style="rounded=0;whiteSpace=wrap;html=1;fillColor=#dae8fc;strokeColor=#6c8ebf;" parent="1" vertex="1">
          <mxGeometry x="80" y="40" width="120" height="80" as="geometry" />
        </mxCell>
        <mxCell id="QtSbq6Br4k7f91_72cH2-2" value="&lt;span style=&quot;&quot;&gt;操作系统&lt;/span&gt;&lt;br style=&quot;&quot;&gt;&lt;span style=&quot;&quot;&gt;in RAM&lt;/span&gt;" style="rounded=0;whiteSpace=wrap;html=1;fillColor=#ffe6cc;strokeColor=#d79b00;" parent="1" vertex="1">
          <mxGeometry x="80" y="120" width="120" height="80" as="geometry" />
        </mxCell>
        <mxCell id="QtSbq6Br4k7f91_72cH2-3" value="操作系统&lt;br&gt;in RAM" style="rounded=0;whiteSpace=wrap;html=1;fillColor=#ffe6cc;strokeColor=#d79b00;" parent="1" vertex="1">
          <mxGeometry x="240" y="40" width="120" height="80" as="geometry" />
        </mxCell>
        <mxCell id="QtSbq6Br4k7f91_72cH2-4" value="&lt;span style=&quot;&quot;&gt;用户程序&lt;/span&gt;&lt;br style=&quot;&quot;&gt;&lt;span style=&quot;&quot;&gt;in RAM&lt;/span&gt;" style="rounded=0;whiteSpace=wrap;html=1;fillColor=#dae8fc;strokeColor=#6c8ebf;" parent="1" vertex="1">
          <mxGeometry x="240" y="120" width="120" height="80" as="geometry" />
        </mxCell>
        <mxCell id="QtSbq6Br4k7f91_72cH2-5" value="&lt;font style=&quot;font-size: 14px;&quot;&gt;仅有RAM时操作系统与用户程序的内存分配&lt;/font&gt;" style="text;html=1;align=center;verticalAlign=middle;resizable=0;points=[];autosize=1;strokeColor=none;fillColor=none;" parent="1" vertex="1">
          <mxGeometry x="80" y="260" width="280" height="20" as="geometry" />
        </mxCell>
        <mxCell id="QtSbq6Br4k7f91_72cH2-6" value="0xFFF..." style="text;html=1;strokeColor=none;fillColor=none;align=center;verticalAlign=middle;whiteSpace=wrap;rounded=0;fontSize=14;" parent="1" vertex="1">
          <mxGeometry x="20" y="40" width="60" height="30" as="geometry" />
        </mxCell>
        <mxCell id="QtSbq6Br4k7f91_72cH2-7" value="操作系统&lt;br&gt;in ROM" style="rounded=0;whiteSpace=wrap;html=1;fontSize=14;fillColor=#ffe6cc;strokeColor=#d79b00;" parent="1" vertex="1">
          <mxGeometry x="480" y="40" width="120" height="40" as="geometry" />
        </mxCell>
        <mxCell id="QtSbq6Br4k7f91_72cH2-8" value="用户程序&lt;br&gt;in RAM" style="rounded=0;whiteSpace=wrap;html=1;fontSize=14;fillColor=#dae8fc;strokeColor=#6c8ebf;" parent="1" vertex="1">
          <mxGeometry x="480" y="80" width="120" height="120" as="geometry" />
        </mxCell>
        <mxCell id="QtSbq6Br4k7f91_72cH2-9" value="操作系统&lt;br&gt;in ROM" style="rounded=0;whiteSpace=wrap;html=1;fontSize=14;fillColor=#ffe6cc;strokeColor=#d79b00;" parent="1" vertex="1">
          <mxGeometry x="640" y="40" width="120" height="40" as="geometry" />
        </mxCell>
        <mxCell id="QtSbq6Br4k7f91_72cH2-10" value="用户程序&lt;br&gt;in RAM" style="rounded=0;whiteSpace=wrap;html=1;fontSize=14;fillColor=#dae8fc;strokeColor=#6c8ebf;" parent="1" vertex="1">
          <mxGeometry x="640" y="80" width="120" height="80" as="geometry" />
        </mxCell>
        <mxCell id="QtSbq6Br4k7f91_72cH2-11" value="操作系统&lt;br&gt;in ROM" style="rounded=0;whiteSpace=wrap;html=1;fontSize=14;fillColor=#ffe6cc;strokeColor=#d79b00;" parent="1" vertex="1">
          <mxGeometry x="640" y="160" width="120" height="40" as="geometry" />
        </mxCell>
        <mxCell id="QtSbq6Br4k7f91_72cH2-12" value="备有ROM时操作系统和用户程序之内存分配" style="text;html=1;strokeColor=none;fillColor=none;align=center;verticalAlign=middle;whiteSpace=wrap;rounded=0;fontSize=14;" parent="1" vertex="1">
          <mxGeometry x="490" y="250" width="280" height="30" as="geometry" />
        </mxCell>
        <mxCell id="N_AGROIotFwkYw0bIIfX-1" value="a" style="text;html=1;strokeColor=none;fillColor=none;align=center;verticalAlign=middle;whiteSpace=wrap;rounded=0;" parent="1" vertex="1">
          <mxGeometry x="120" y="210" width="40" height="30" as="geometry" />
        </mxCell>
        <mxCell id="N_AGROIotFwkYw0bIIfX-2" value="b" style="text;html=1;strokeColor=none;fillColor=none;align=center;verticalAlign=middle;whiteSpace=wrap;rounded=0;" parent="1" vertex="1">
          <mxGeometry x="280" y="210" width="40" height="30" as="geometry" />
        </mxCell>
        <mxCell id="N_AGROIotFwkYw0bIIfX-3" value="a" style="text;html=1;strokeColor=none;fillColor=none;align=center;verticalAlign=middle;whiteSpace=wrap;rounded=0;" parent="1" vertex="1">
          <mxGeometry x="520" y="210" width="40" height="30" as="geometry" />
        </mxCell>
        <mxCell id="N_AGROIotFwkYw0bIIfX-4" value="b" style="text;html=1;strokeColor=none;fillColor=none;align=center;verticalAlign=middle;whiteSpace=wrap;rounded=0;" parent="1" vertex="1">
          <mxGeometry x="680" y="210" width="40" height="30" as="geometry" />
        </mxCell>
        <mxCell id="N_AGROIotFwkYw0bIIfX-13" value="0xFFF..." style="text;html=1;strokeColor=none;fillColor=none;align=center;verticalAlign=middle;whiteSpace=wrap;rounded=0;fontSize=14;" parent="1" vertex="1">
          <mxGeometry x="420" y="40" width="60" height="30" as="geometry" />
        </mxCell>
      </root>
    </mxGraphModel>
  </diagram>
  <diagram id="xX6v18s3KCYC2oYIWA6h" name="CPU">
    <mxGraphModel dx="750" dy="1921" grid="1" gridSize="10" guides="1" tooltips="1" connect="1" arrows="1" fold="1" page="1" pageScale="1" pageWidth="827" pageHeight="1169" math="0" shadow="0">
      <root>
        <mxCell id="0" />
        <mxCell id="1" parent="0" />
        <mxCell id="syXhMET82vNM0x6BgrB7-11" value="" style="rounded=0;whiteSpace=wrap;html=1;fillColor=#eeeeee;strokeColor=#36393d;" vertex="1" parent="1">
          <mxGeometry x="480" y="-320" width="280" height="170" as="geometry" />
        </mxCell>
        <mxCell id="irElysly7qT-1lj7jJ0L-1" value="&lt;font style=&quot;font-size: 14px;&quot;&gt;主存&lt;/font&gt;" style="rounded=0;whiteSpace=wrap;html=1;fillColor=#dae8fc;strokeColor=#6c8ebf;" parent="1" vertex="1">
          <mxGeometry x="80" y="160" width="160" height="40" as="geometry" />
        </mxCell>
        <mxCell id="irElysly7qT-1lj7jJ0L-17" style="edgeStyle=none;rounded=0;orthogonalLoop=1;jettySize=auto;html=1;exitX=0.5;exitY=1;exitDx=0;exitDy=0;fontSize=14;endArrow=none;endFill=0;" parent="1" source="irElysly7qT-1lj7jJ0L-2" edge="1">
          <mxGeometry relative="1" as="geometry">
            <mxPoint x="160" y="160" as="targetPoint" />
          </mxGeometry>
        </mxCell>
        <mxCell id="irElysly7qT-1lj7jJ0L-2" value="缓存" style="rounded=0;whiteSpace=wrap;html=1;fontSize=14;fillColor=#ffe6cc;strokeColor=#d79b00;" parent="1" vertex="1">
          <mxGeometry y="80" width="120" height="40" as="geometry" />
        </mxCell>
        <mxCell id="irElysly7qT-1lj7jJ0L-16" style="edgeStyle=none;rounded=0;orthogonalLoop=1;jettySize=auto;html=1;exitX=0.5;exitY=1;exitDx=0;exitDy=0;entryX=0.5;entryY=0;entryDx=0;entryDy=0;fontSize=14;endArrow=none;endFill=0;" parent="1" source="irElysly7qT-1lj7jJ0L-3" target="irElysly7qT-1lj7jJ0L-1" edge="1">
          <mxGeometry relative="1" as="geometry" />
        </mxCell>
        <mxCell id="irElysly7qT-1lj7jJ0L-3" value="缓存" style="rounded=0;whiteSpace=wrap;html=1;fontSize=14;fillColor=#ffe6cc;strokeColor=#d79b00;" parent="1" vertex="1">
          <mxGeometry x="200" y="80" width="120" height="40" as="geometry" />
        </mxCell>
        <mxCell id="irElysly7qT-1lj7jJ0L-15" style="edgeStyle=none;rounded=0;orthogonalLoop=1;jettySize=auto;html=1;exitX=0.5;exitY=1;exitDx=0;exitDy=0;entryX=0.5;entryY=0;entryDx=0;entryDy=0;fontSize=14;endArrow=none;endFill=0;" parent="1" source="irElysly7qT-1lj7jJ0L-4" target="irElysly7qT-1lj7jJ0L-2" edge="1">
          <mxGeometry relative="1" as="geometry" />
        </mxCell>
        <mxCell id="irElysly7qT-1lj7jJ0L-4" value="CPU1" style="rounded=0;whiteSpace=wrap;html=1;fontSize=14;fillColor=#d5e8d4;strokeColor=#82b366;" parent="1" vertex="1">
          <mxGeometry width="120" height="40" as="geometry" />
        </mxCell>
        <mxCell id="irElysly7qT-1lj7jJ0L-14" style="edgeStyle=none;rounded=0;orthogonalLoop=1;jettySize=auto;html=1;exitX=0.5;exitY=1;exitDx=0;exitDy=0;entryX=0.5;entryY=0;entryDx=0;entryDy=0;fontSize=14;endArrow=none;endFill=0;" parent="1" source="irElysly7qT-1lj7jJ0L-5" target="irElysly7qT-1lj7jJ0L-3" edge="1">
          <mxGeometry relative="1" as="geometry" />
        </mxCell>
        <mxCell id="irElysly7qT-1lj7jJ0L-5" value="CPU2" style="rounded=0;whiteSpace=wrap;html=1;fontSize=14;fillColor=#d5e8d4;strokeColor=#82b366;" parent="1" vertex="1">
          <mxGeometry x="200" width="120" height="40" as="geometry" />
        </mxCell>
        <mxCell id="irElysly7qT-1lj7jJ0L-13" style="edgeStyle=none;rounded=0;orthogonalLoop=1;jettySize=auto;html=1;exitX=0.5;exitY=1;exitDx=0;exitDy=0;entryX=0.5;entryY=0;entryDx=0;entryDy=0;fontSize=14;" parent="1" source="irElysly7qT-1lj7jJ0L-6" target="irElysly7qT-1lj7jJ0L-5" edge="1">
          <mxGeometry relative="1" as="geometry" />
        </mxCell>
        <mxCell id="irElysly7qT-1lj7jJ0L-6" value="" style="verticalLabelPosition=middle;verticalAlign=middle;html=1;shape=trapezoid;perimeter=trapezoidPerimeter;whiteSpace=wrap;size=0.23;arcSize=10;flipV=1;labelPosition=center;align=center;fontSize=14;fillColor=#f8cecc;strokeColor=#b85450;" parent="1" vertex="1">
          <mxGeometry x="120" y="-200" width="100" height="160" as="geometry" />
        </mxCell>
        <mxCell id="irElysly7qT-1lj7jJ0L-12" style="rounded=0;orthogonalLoop=1;jettySize=auto;html=1;entryX=0.5;entryY=0;entryDx=0;entryDy=0;fontSize=14;exitX=0.5;exitY=1;exitDx=0;exitDy=0;" parent="1" source="irElysly7qT-1lj7jJ0L-6" target="irElysly7qT-1lj7jJ0L-4" edge="1">
          <mxGeometry relative="1" as="geometry" />
        </mxCell>
        <mxCell id="irElysly7qT-1lj7jJ0L-8" value="T1" style="text;html=1;strokeColor=none;fillColor=none;align=center;verticalAlign=middle;whiteSpace=wrap;rounded=0;fontSize=14;" parent="1" vertex="1">
          <mxGeometry x="150" y="-90" width="40" height="40" as="geometry" />
        </mxCell>
        <mxCell id="irElysly7qT-1lj7jJ0L-9" value="T2" style="text;html=1;strokeColor=none;fillColor=none;align=center;verticalAlign=middle;whiteSpace=wrap;rounded=0;fontSize=14;" parent="1" vertex="1">
          <mxGeometry x="150" y="-140" width="40" height="40" as="geometry" />
        </mxCell>
        <mxCell id="irElysly7qT-1lj7jJ0L-10" value="T3" style="text;html=1;strokeColor=none;fillColor=none;align=center;verticalAlign=middle;whiteSpace=wrap;rounded=0;fontSize=14;" parent="1" vertex="1">
          <mxGeometry x="150" y="-190" width="40" height="40" as="geometry" />
        </mxCell>
        <mxCell id="irElysly7qT-1lj7jJ0L-18" value="&lt;h1&gt;SMP对称多处理器架构&lt;/h1&gt;&lt;p&gt;L&lt;/p&gt;" style="text;html=1;strokeColor=none;fillColor=none;spacing=5;spacingTop=-20;whiteSpace=wrap;overflow=hidden;rounded=0;fontSize=14;" parent="1" vertex="1">
          <mxGeometry x="30" y="-330" width="370" height="120" as="geometry" />
        </mxCell>
        <mxCell id="syXhMET82vNM0x6BgrB7-5" value="" style="rounded=0;whiteSpace=wrap;html=1;fillColor=none;" vertex="1" parent="1">
          <mxGeometry x="400" y="-360" width="720" height="300" as="geometry" />
        </mxCell>
        <mxCell id="syXhMET82vNM0x6BgrB7-2" value="二级缓存" style="rounded=1;whiteSpace=wrap;html=1;fillColor=#e1d5e7;strokeColor=#9673a6;" vertex="1" parent="1">
          <mxGeometry x="500" y="-200" width="240" height="40" as="geometry" />
        </mxCell>
        <mxCell id="syXhMET82vNM0x6BgrB7-3" value="一级数据缓存" style="rounded=1;whiteSpace=wrap;html=1;fillColor=#e1d5e7;strokeColor=#9673a6;" vertex="1" parent="1">
          <mxGeometry x="500" y="-280" width="100" height="40" as="geometry" />
        </mxCell>
        <mxCell id="syXhMET82vNM0x6BgrB7-4" value="一级指令缓存" style="rounded=1;whiteSpace=wrap;html=1;fillColor=#e1d5e7;strokeColor=#9673a6;" vertex="1" parent="1">
          <mxGeometry x="640" y="-280" width="100" height="40" as="geometry" />
        </mxCell>
        <mxCell id="syXhMET82vNM0x6BgrB7-6" value="&lt;b&gt;&lt;font style=&quot;font-size: 14px;&quot;&gt;CPU&lt;/font&gt;&lt;/b&gt;" style="text;html=1;strokeColor=none;fillColor=none;align=center;verticalAlign=middle;whiteSpace=wrap;rounded=0;" vertex="1" parent="1">
          <mxGeometry x="400" y="-350" width="60" height="30" as="geometry" />
        </mxCell>
        <mxCell id="syXhMET82vNM0x6BgrB7-7" value="&lt;b&gt;一级缓存&lt;/b&gt;" style="text;html=1;strokeColor=none;fillColor=none;align=center;verticalAlign=middle;whiteSpace=wrap;rounded=0;" vertex="1" parent="1">
          <mxGeometry x="410" y="-275" width="60" height="30" as="geometry" />
        </mxCell>
        <mxCell id="syXhMET82vNM0x6BgrB7-10" value="&lt;b&gt;二级缓存&lt;/b&gt;" style="text;html=1;strokeColor=none;fillColor=none;align=center;verticalAlign=middle;whiteSpace=wrap;rounded=0;" vertex="1" parent="1">
          <mxGeometry x="410" y="-195" width="60" height="35" as="geometry" />
        </mxCell>
        <mxCell id="syXhMET82vNM0x6BgrB7-12" value="核心1" style="text;html=1;strokeColor=none;fillColor=none;align=center;verticalAlign=middle;whiteSpace=wrap;rounded=0;" vertex="1" parent="1">
          <mxGeometry x="480" y="-310" width="60" height="20" as="geometry" />
        </mxCell>
        <mxCell id="syXhMET82vNM0x6BgrB7-13" value="" style="rounded=0;whiteSpace=wrap;html=1;fillColor=#eeeeee;strokeColor=#36393d;" vertex="1" parent="1">
          <mxGeometry x="800" y="-320" width="280" height="170" as="geometry" />
        </mxCell>
        <mxCell id="syXhMET82vNM0x6BgrB7-14" value="二级缓存" style="rounded=1;whiteSpace=wrap;html=1;fillColor=#e1d5e7;strokeColor=#9673a6;" vertex="1" parent="1">
          <mxGeometry x="820" y="-200" width="240" height="40" as="geometry" />
        </mxCell>
        <mxCell id="syXhMET82vNM0x6BgrB7-15" value="一级数据缓存" style="rounded=1;whiteSpace=wrap;html=1;fillColor=#e1d5e7;strokeColor=#9673a6;" vertex="1" parent="1">
          <mxGeometry x="820" y="-280" width="100" height="40" as="geometry" />
        </mxCell>
        <mxCell id="syXhMET82vNM0x6BgrB7-16" value="一级指令缓存" style="rounded=1;whiteSpace=wrap;html=1;fillColor=#e1d5e7;strokeColor=#9673a6;" vertex="1" parent="1">
          <mxGeometry x="960" y="-280" width="100" height="40" as="geometry" />
        </mxCell>
        <mxCell id="syXhMET82vNM0x6BgrB7-17" value="核心2" style="text;html=1;strokeColor=none;fillColor=none;align=center;verticalAlign=middle;whiteSpace=wrap;rounded=0;" vertex="1" parent="1">
          <mxGeometry x="800" y="-310" width="60" height="20" as="geometry" />
        </mxCell>
        <mxCell id="syXhMET82vNM0x6BgrB7-9" value="" style="endArrow=none;dashed=1;html=1;rounded=0;" edge="1" parent="1">
          <mxGeometry width="50" height="50" relative="1" as="geometry">
            <mxPoint x="400" y="-220.5" as="sourcePoint" />
            <mxPoint x="1120" y="-220" as="targetPoint" />
          </mxGeometry>
        </mxCell>
        <mxCell id="syXhMET82vNM0x6BgrB7-18" value="&lt;font style=&quot;font-size: 12px;&quot;&gt;三级缓存&lt;/font&gt;" style="rounded=1;whiteSpace=wrap;html=1;fontSize=14;fillColor=#e1d5e7;strokeColor=#9673a6;" vertex="1" parent="1">
          <mxGeometry x="480" y="-124" width="600" height="40" as="geometry" />
        </mxCell>
        <mxCell id="syXhMET82vNM0x6BgrB7-19" value="" style="endArrow=none;dashed=1;html=1;rounded=0;fontSize=12;" edge="1" parent="1">
          <mxGeometry width="50" height="50" relative="1" as="geometry">
            <mxPoint x="400" y="-134" as="sourcePoint" />
            <mxPoint x="1120" y="-134" as="targetPoint" />
          </mxGeometry>
        </mxCell>
        <mxCell id="syXhMET82vNM0x6BgrB7-20" value="内存" style="rounded=1;whiteSpace=wrap;html=1;fontSize=12;fillColor=#dae8fc;strokeColor=#6c8ebf;" vertex="1" parent="1">
          <mxGeometry x="480" width="600" height="40" as="geometry" />
        </mxCell>
        <mxCell id="syXhMET82vNM0x6BgrB7-21" value="" style="endArrow=classic;startArrow=classic;html=1;rounded=0;fontSize=12;" edge="1" parent="1" source="syXhMET82vNM0x6BgrB7-20" target="syXhMET82vNM0x6BgrB7-18">
          <mxGeometry width="50" height="50" relative="1" as="geometry">
            <mxPoint x="760" y="-40" as="sourcePoint" />
            <mxPoint x="760" y="-80" as="targetPoint" />
          </mxGeometry>
        </mxCell>
        <mxCell id="syXhMET82vNM0x6BgrB7-22" value="" style="endArrow=none;dashed=1;html=1;rounded=0;fontSize=12;" edge="1" parent="1">
          <mxGeometry width="50" height="50" relative="1" as="geometry">
            <mxPoint x="400" y="-70.5" as="sourcePoint" />
            <mxPoint x="1120" y="-70.5" as="targetPoint" />
          </mxGeometry>
        </mxCell>
        <mxCell id="syXhMET82vNM0x6BgrB7-23" value="&lt;b&gt;三级缓存&lt;/b&gt;" style="text;html=1;strokeColor=none;fillColor=none;align=center;verticalAlign=middle;whiteSpace=wrap;rounded=0;" vertex="1" parent="1">
          <mxGeometry x="414" y="-119" width="60" height="35" as="geometry" />
        </mxCell>
        <mxCell id="syXhMET82vNM0x6BgrB7-24" value="" style="endArrow=classic;startArrow=classic;html=1;rounded=0;fontSize=12;" edge="1" parent="1">
          <mxGeometry width="50" height="50" relative="1" as="geometry">
            <mxPoint x="1009.5" y="-200" as="sourcePoint" />
            <mxPoint x="1009.5" y="-240" as="targetPoint" />
          </mxGeometry>
        </mxCell>
        <mxCell id="syXhMET82vNM0x6BgrB7-25" value="" style="endArrow=classic;startArrow=classic;html=1;rounded=0;fontSize=12;" edge="1" parent="1">
          <mxGeometry width="50" height="50" relative="1" as="geometry">
            <mxPoint x="869.5" y="-200" as="sourcePoint" />
            <mxPoint x="869.5" y="-240" as="targetPoint" />
          </mxGeometry>
        </mxCell>
        <mxCell id="syXhMET82vNM0x6BgrB7-26" value="" style="endArrow=classic;startArrow=classic;html=1;rounded=0;fontSize=12;" edge="1" parent="1">
          <mxGeometry width="50" height="50" relative="1" as="geometry">
            <mxPoint x="689.5" y="-200" as="sourcePoint" />
            <mxPoint x="689.5" y="-240" as="targetPoint" />
          </mxGeometry>
        </mxCell>
        <mxCell id="syXhMET82vNM0x6BgrB7-27" value="" style="endArrow=classic;startArrow=classic;html=1;rounded=0;fontSize=12;" edge="1" parent="1">
          <mxGeometry width="50" height="50" relative="1" as="geometry">
            <mxPoint x="549.5" y="-200" as="sourcePoint" />
            <mxPoint x="549.5" y="-240" as="targetPoint" />
          </mxGeometry>
        </mxCell>
        <mxCell id="syXhMET82vNM0x6BgrB7-28" value="" style="endArrow=classic;startArrow=classic;html=1;rounded=0;fontSize=12;" edge="1" parent="1">
          <mxGeometry width="50" height="50" relative="1" as="geometry">
            <mxPoint x="939.5" y="-124" as="sourcePoint" />
            <mxPoint x="939.5" y="-164" as="targetPoint" />
          </mxGeometry>
        </mxCell>
        <mxCell id="syXhMET82vNM0x6BgrB7-29" value="" style="endArrow=classic;startArrow=classic;html=1;rounded=0;fontSize=12;" edge="1" parent="1">
          <mxGeometry width="50" height="50" relative="1" as="geometry">
            <mxPoint x="619.5" y="-124" as="sourcePoint" />
            <mxPoint x="619.5" y="-164" as="targetPoint" />
          </mxGeometry>
        </mxCell>
      </root>
    </mxGraphModel>
  </diagram>
</mxfile>
